<?xml version="1.0" encoding="UTF-8" standalone="no"?>
<!-- Created with Inkscape (http://www.inkscape.org/) -->

<svg
   width="193.29308mm"
   height="46.274158mm"
   viewBox="0 0 193.29308 46.274158"
   version="1.1"
   id="svg5"
   inkscape:version="1.2.1 (9c6d41e, 2022-07-14)"
   sodipodi:docname="bblocks-sign.svg"
   xmlns:inkscape="http://www.inkscape.org/namespaces/inkscape"
   xmlns:sodipodi="http://sodipodi.sourceforge.net/DTD/sodipodi-0.dtd"
   xmlns="http://www.w3.org/2000/svg"
   xmlns:svg="http://www.w3.org/2000/svg">
  <sodipodi:namedview
     id="namedview7"
     pagecolor="#ffffff"
     bordercolor="#999999"
     borderopacity="1"
     inkscape:showpageshadow="0"
     inkscape:pageopacity="0"
     inkscape:pagecheckerboard="0"
     inkscape:deskcolor="#d1d1d1"
     inkscape:document-units="mm"
     showgrid="false"
     inkscape:zoom="0.90395301"
     inkscape:cx="466.83843"
     inkscape:cy="248.35362"
     inkscape:window-width="1309"
     inkscape:window-height="747"
     inkscape:window-x="0"
     inkscape:window-y="25"
     inkscape:window-maximized="0"
     inkscape:current-layer="layer2"
     showguides="true" />
  <defs
     id="defs2" />
  <g
     inkscape:label="Layer 1"
     inkscape:groupmode="layer"
     id="layer1"
     transform="translate(-6.7725064,-107.97913)">
    <g
       id="g1943"
       transform="matrix(0.98185166,0,0,0.90976241,1.3371431,10.346197)"
       style="display:none">
      <rect
         style="opacity:1;fill:#cccccc;stroke-width:0.226259"
         id="rect442"
         width="196.39479"
         height="48.275818"
         x="5.4858894"
         y="102.58611"
         ry="13.540778" />
      <rect
         style="opacity:1;fill:#ffffff;stroke-width:0.206382"
         id="rect1022"
         width="189.20613"
         height="41.692753"
         x="9.0802145"
         y="105.87765"
         ry="11.694308" />
    </g>
    <path
       id="rect331"
       style="fill:#ca8d3d;fill-opacity:1;stroke-width:0.215962"
       inkscape:label="rect331"
       d="m 8.7738913,107.97913 c 0.02276,0.0412 0.03997,0.0683 0.06408,0.11323 0.212866,0.39634 0.45714,0.75474 0.723987,1.13314 0.245106,0.34757 0.5282517,0.73764 0.7580927,1.1298 0.228415,0.38974 0.428129,0.819 0.52865,1.30485 0.09799,0.47365 0.100016,0.98929 -0.03927,1.57314 -0.117321,0.48988 -0.321081,0.95316 -0.562239,1.39809 -0.234339,0.43232 -0.5056047,0.85049 -0.7679117,1.25747 -0.257599,0.39968 -0.506133,0.78792 -0.711068,1.1794 -0.199939,0.38192 -0.355974,0.76215 -0.437699,1.15163 -0.01568,0.0683 -0.01922,0.16572 0.0021,0.29716 0.02091,0.12911 0.06364,0.27861 0.128674,0.44814 0.129331,0.33716 0.332452,0.7174 0.574642,1.12536 0.235351,0.39645 0.500197,0.80597 0.74104,1.19679 0.118434,0.19218 0.2325357,0.38243 0.3327957,0.5636 0.09908,0.17904 0.189219,0.35709 0.257349,0.52512 0.537872,1.30544 0.642179,2.72397 0.576709,4.13397 -0.06416,1.38172 -0.29059,2.7471 -0.435116,4.00371 -0.05238,0.39907 -0.03444,0.80671 -0.01602,1.27154 0.01741,0.43921 0.03539,0.92846 -0.04237,1.41549 -0.112551,0.73622 -0.352102,1.4426 -0.6149497,2.12897 -0.261545,0.68299 -0.541431,1.33496 -0.758093,1.99944 -0.110113,0.32119 -0.177828,0.64731 -0.254765,1.00657 -0.07424,0.34666 -0.156669,0.72022 -0.296622,1.09095 -0.180747,0.48767 -0.408379,0.96288 -0.6237349,1.42067 -0.2161519,0.45949 -0.4210701,0.90382 -0.5710245,1.35258 -0.00482,0.0135 -0.00992,0.026 -0.014469,0.0363 -0.00471,0.0106 -0.00992,0.0216 -0.014986,0.0322 -0.00991,0.0205 -0.022251,0.0451 -0.034623,0.0696 -0.025318,0.0503 -0.065632,0.12884 -0.09095,0.1791 -0.068734,0.13643 -0.1495925,0.30086 -0.2227255,0.46406 -0.036454,0.0814 -0.070293,0.16077 -0.099219,0.235 -0.029167,0.0748 -0.051844,0.1404 -0.067696,0.19576 -0.00657,0.023 -0.010256,0.0406 -0.013953,0.0574 0.2162578,0.17012 0.4265421,0.3675 0.6283854,0.58655 0.2412004,0.26177 0.4755519,0.557 0.6981485,0.87483 0.445139,0.6356 0.850377,1.3701 1.177189,2.12269 0.327132,0.75331 0.578149,1.53087 0.710035,2.2522 0.06605,0.36121 0.1026017,0.71042 0.1033527,1.03728 7.49e-4,0.32656 -0.03402,0.63527 -0.1142047,0.91295 -0.05691,0.18493 -0.142832,0.3838 -0.24443,0.58433 -0.102172,0.20167 -0.222822,0.40903 -0.3514,0.61134 -0.129026,0.20301 -0.266764,0.40235 -0.404626,0.58729 -0.138265,0.18548 -0.277452,0.35751 -0.407727,0.50587 -0.05255,0.061 -0.118766,0.11795 -0.190169,0.16986 -0.07226,0.0525 -0.155378,0.10435 -0.244947,0.15468 -0.1790295,0.10066 -0.3963009,0.20215 -0.6351033,0.29976 -0.069745,0.0285 -0.1461295,0.0563 -0.2201416,0.0843 H 194.20289 c 0.008,-0.019 0.0205,-0.0479 0.0279,-0.0647 0.0209,-0.0482 0.0267,-0.0646 0.0367,-0.0884 -0.0236,-0.042 -0.0554,-0.097 -0.10025,-0.17541 -0.0968,-0.16882 -0.23369,-0.41532 -0.40773,-0.78935 -0.18769,-0.4028 -0.40889,-0.76869 -0.65164,-1.15534 -0.22296,-0.35513 -0.48135,-0.75428 -0.68626,-1.15348 -0.20363,-0.39671 -0.37617,-0.83171 -0.44597,-1.32038 -0.068,-0.47634 -0.0374,-0.9918 0.1385,-1.57055 0.14806,-0.48559 0.38063,-0.9418 0.64957,-1.37848 0.26133,-0.42432 0.55878,-0.8331 0.84646,-1.2312 0.28251,-0.39095 0.55506,-0.77089 0.78445,-1.15534 0.2238,-0.37506 0.40389,-0.74964 0.51004,-1.13608 0.0197,-0.0677 0.0295,-0.16517 0.0165,-0.29716 -0.0127,-0.12966 -0.046,-0.28039 -0.10025,-0.45185 -0.10796,-0.34099 -0.28708,-0.72738 -0.50333,-1.14276 -0.21013,-0.40365 -0.44858,-0.82115 -0.66456,-1.21936 -0.10621,-0.1958 -0.20844,-0.38974 -0.29714,-0.57396 -0.0877,-0.18206 -0.16636,-0.36283 -0.22376,-0.53289 -0.45514,-1.32149 -0.46999,-2.74195 -0.31574,-4.1484 0.15112,-1.37824 0.46325,-2.73492 0.68678,-3.98558 0.0775,-0.39698 0.0852,-0.80474 0.0961,-1.26969 0.0103,-0.43933 0.0229,-0.92852 0.13125,-1.41253 0.15881,-0.73183 0.44298,-1.42995 0.7488,-2.10714 0.30431,-0.67382 0.62484,-1.31599 0.88315,-1.97281 0.13023,-0.31731 0.21831,-0.6409 0.31781,-0.99731 0.096,-0.34391 0.20167,-0.71438 0.36483,-1.08021 0.21129,-0.48133 0.46865,-0.94885 0.71262,-1.39921 0.24488,-0.45205 0.47771,-0.88914 0.65577,-1.33259 0.005,-0.0134 0.0111,-0.0258 0.0171,-0.0359 0.005,-0.0104 0.0105,-0.0211 0.0165,-0.0314 0.0111,-0.0202 0.0254,-0.0444 0.0393,-0.0685 0.0284,-0.0494 0.0734,-0.12673 0.1018,-0.17615 0.0773,-0.13407 0.16836,-0.29561 0.25166,-0.45629 0.0415,-0.08 0.0806,-0.15844 0.11421,-0.23165 0.0339,-0.0738 0.0607,-0.13839 0.0801,-0.19318 0.008,-0.0228 0.0126,-0.0404 0.0176,-0.057 -0.20533,-0.17693 -0.40334,-0.38082 -0.59118,-0.60616 -0.22447,-0.2693 -0.43998,-0.57198 -0.64234,-0.89666 -0.40465,-0.64933 -0.76323,-1.3962 -1.04231,-2.15858 -0.27934,-0.76312 -0.48111,-1.54771 -0.56741,-2.27256 -0.0429,-0.36298 -0.0575,-0.71295 -0.0377,-1.03951 0.0198,-0.32625 0.074,-0.63371 0.17156,-0.9085 0.0685,-0.18291 0.16699,-0.37878 0.28112,-0.57582 0.11477,-0.19815 0.24845,-0.40155 0.38964,-0.5995 0.14169,-0.19864 0.29143,-0.39328 0.4408,-0.5736 0.0723,-0.0873 0.14482,-0.17099 0.21601,-0.2509 z M 200.06558,154.21774 c -0.007,0.0118 -0.0137,0.0238 -0.0207,0.0355 h 0.0207 z" />
    <path
       id="path659"
       style="fill:#d6a468;fill-opacity:1;stroke-width:0.714993"
       d="m 173.27548,110.5716 c -0.60122,4.5e-4 -1.2029,0.007 -1.72392,0.0117 -0.26627,0.003 -0.50874,0.006 -0.72916,0.007 -0.22149,0.002 -0.4115,0.004 -0.56637,0.004 -5.40068,0 -9.91197,-0.0278 -14.98927,0 -11.1312,0.0609 -21.71141,0.34303 -31.77067,0.48212 -13.0409,0.18032 -26.732444,0.16063 -38.018871,0.16063 H 18.373305 v 0.1408 0.14081 c 0.750107,0 1.476658,0.003 2.150773,0.0164 0.632693,0.0129 1.235188,0.0357 1.810742,0.0772 0.542368,0.039 1.071788,0.095 1.600419,0.17832 0.503643,0.0794 1.017873,0.18521 1.556494,0.32969 0.02347,0.007 0.0608,0.0174 0.09974,0.0317 0.03775,0.0139 0.07299,0.0295 0.09819,0.0457 0.02384,0.0154 0.03668,0.0299 0.03772,0.0425 9.42e-4,0.0114 -0.0068,0.0242 -0.03462,0.0391 -0.05445,0.0292 -0.140042,0.0589 -0.264066,0.0888 -0.122755,0.0297 -0.277357,0.0582 -0.461471,0.0851 -0.364213,0.0532 -0.809586,0.095 -1.269173,0.12838 -0.446634,0.0325 -0.879025,0.0547 -1.222664,0.071 -0.161496,0.007 -0.316359,0.0148 -0.424264,0.0203 -0.05391,0.003 -0.110336,0.006 -0.159163,0.009 -0.02362,0.002 -0.05721,0.005 -0.0925,0.008 -0.01778,0.002 -0.04365,0.005 -0.07286,0.009 -0.02513,0.004 -0.07681,0.0116 -0.129191,0.0256 -0.05332,0.0144 -0.104249,0.0312 -0.145211,0.0513 -0.04134,0.0202 -0.07093,0.0424 -0.08475,0.0666 -0.01378,0.024 -0.01035,0.0476 0.0057,0.0695 0.01581,0.0216 0.04289,0.0409 0.07493,0.0578 0.06201,0.0328 0.147959,0.0597 0.230477,0.0811 0.0839,0.0218 0.179174,0.0421 0.277503,0.0603 0.194503,0.036 0.430059,0.0704 0.677478,0.10302 0.24747,0.0326 0.518605,0.0648 0.791683,0.0956 0.271192,0.0306 0.547201,0.0606 0.807186,0.0887 0.246873,0.0268 0.472747,0.0514 0.671793,0.0745 0.07713,0.0323 0.175217,0.0633 0.287838,0.0935 0.05085,0.0137 0.103374,0.0232 0.145727,0.0296 0.04387,0.007 0.08716,0.0116 0.126608,0.0153 0.07786,0.007 0.162487,0.0119 0.245979,0.0132 0.04302,6.4e-4 0.0919,5.2e-4 0.144178,-0.002 0.05123,-0.002 0.117103,-0.006 0.187068,-0.0141 0.03597,-0.005 0.076,-0.0102 0.115756,-0.0182 0.04019,-0.008 0.08073,-0.0187 0.116788,-0.0317 0.03652,-0.0132 0.0656,-0.028 0.08527,-0.0444 0.01967,-0.0163 0.02791,-0.0326 0.02791,-0.0479 -2e-6,-0.0181 -0.01173,-0.0346 -0.02842,-0.0486 -0.01653,-0.0138 -0.03823,-0.0254 -0.05943,-0.0349 -0.04114,-0.0185 -0.08947,-0.0326 -0.127641,-0.0423 -0.03578,-0.009 -0.07257,-0.0167 -0.107487,-0.0235 0.134097,-0.008 0.277034,-0.0173 0.461987,-0.0229 0.225237,-0.007 0.472498,-0.0109 0.727604,-0.0131 0.25349,-0.002 0.510274,-0.003 0.75396,-0.002 0.242736,6.6e-4 0.469623,0.002 0.666626,0.004 0.09739,7.2e-4 0.188478,0.002 0.268717,0.002 0.07979,5e-4 0.15292,7.2e-4 0.214457,7.2e-4 h 20.97026 c 3.050741,0 6.042928,0.0936 9.088335,0.20236 2.9937,0.10689 6.056268,0.22914 9.153963,0.2795 5.791768,0.0941 11.85441,0.12092 17.719848,0.0806 7.673243,-0.0528 15.719489,-0.0887 23.412009,-0.32229 3.52569,-0.10707 7.02644,-0.26723 10.50427,-0.42031 3.49236,-0.15373 6.95954,-0.30037 10.45311,-0.38305 5.36966,-0.1271 10.75764,-0.14213 16.13752,-0.14795 5.41743,-0.006 10.80933,-0.002 16.20263,-0.0927 0.76018,-0.0128 1.55103,2.6e-4 2.36368,2.6e-4 2.07582,0 4.3189,-0.0133 6.3562,-0.0816 0.38249,-0.0128 0.814,-0.0366 1.264,-0.0689 0.45294,-0.0327 0.93083,-0.0745 1.40612,-0.12337 0.47736,-0.0492 0.95448,-0.10573 1.40405,-0.16828 0.45096,-0.0628 0.87871,-0.13192 1.25263,-0.20659 0.37371,-0.0746 0.70657,-0.15713 0.95395,-0.24674 0.12494,-0.0452 0.23159,-0.0936 0.30954,-0.14477 0.0784,-0.0514 0.12844,-0.10603 0.13798,-0.16299 0.01,-0.0574 -0.0223,-0.11477 -0.0982,-0.17093 -0.0757,-0.0561 -0.19185,-0.10858 -0.34313,-0.15771 -0.15118,-0.0491 -0.33807,-0.0951 -0.55707,-0.13817 -0.21969,-0.0432 -0.4752,-0.0842 -0.76688,-0.12336 -0.20472,-0.0274 -0.43743,-0.0475 -0.67696,-0.0626 -0.24268,-0.0154 -0.50592,-0.0265 -0.77825,-0.0346 -0.54816,-0.0163 -1.15874,-0.0211 -1.75183,-0.0206 z" />
    <path
       id="path731"
       style="fill:#d6a468;fill-opacity:1;stroke-width:0.846236"
       d="m 181.24691,115.58125 c -2.4523,-6.2e-4 -4.89629,0.0809 -7.14375,0.29197 -3.56604,0.33556 -6.8394,0.74579 -10.17716,1.00806 -0.25342,0.0204 -0.54405,0.0313 -0.85576,0.0359 -0.31297,0.005 -0.64442,0.003 -0.9772,-0.002 -0.33431,-0.005 -0.67008,-0.0117 -0.98857,-0.0174 -0.32097,-0.006 -0.6262,-0.0104 -0.89814,-0.01 -2.21383,0.002 -4.47441,-0.0312 -6.71328,-0.0466 -2.28634,-0.0159 -4.52987,-0.0138 -6.70605,0.0551 -5.96581,0.1868 -11.6442,0.40852 -17.53588,0.54067 -5.96305,0.13374 -11.805,0.16567 -17.58239,-0.0326 -2.07221,-0.0709 -4.21053,-0.0713 -6.33553,-0.0544 -2.16384,0.0172 -4.32991,0.0521 -6.451295,0.0525 -2.162086,6.2e-4 -4.265346,-0.0341 -6.290056,-0.1532 -2.060509,-0.12112 -4.019885,-0.32861 -5.851325,-0.66945 -0.735841,-0.13654 -1.649667,-0.25183 -2.644283,-0.34638 -1.017269,-0.0967 -2.124563,-0.17221 -3.229261,-0.22722 -1.13229,-0.0564 -2.265583,-0.0915 -3.316076,-0.10621 -1.079459,-0.0151 -2.072342,-0.009 -2.904733,0.0174 -0.536297,0.0169 -0.915949,0.0301 -1.180289,0.0403 -0.133699,0.005 -0.238182,0.009 -0.318327,0.0133 -0.04032,0.002 -0.07407,0.004 -0.102836,0.006 -0.02886,0.002 -0.05266,0.003 -0.07131,0.005 -0.0094,6.3e-4 -0.01769,0.002 -0.0248,0.002 -0.0071,6.3e-4 -0.01289,0.002 -0.01809,0.002 -0.0051,6.1e-4 -0.01001,0.002 -0.01395,0.002 -0.002,3.1e-4 -0.0039,7.1e-4 -0.0057,0.002 -0.0019,6.2e-4 -0.0041,0.002 -0.0052,0.003 -5.6e-4,6.2e-4 -5.26e-4,0.002 -5.17e-4,0.002 1e-5,6.3e-4 -9.3e-5,0.002 5.17e-4,0.002 6.07e-4,6.2e-4 0.0016,0.002 0.0026,0.002 0.005,0.002 0.0073,0.002 0.0093,0.003 0.002,3.1e-4 0.0041,4.3e-4 0.0062,7.2e-4 0.0041,6.3e-4 0.0089,0.002 0.01395,0.002 0.0051,3e-4 0.01036,4.8e-4 0.01654,0.002 0.01237,6.2e-4 0.02732,0.002 0.04393,0.002 0.01672,6.2e-4 0.03527,7.2e-4 0.05529,0.002 0.04022,7.2e-4 0.08649,0.002 0.133325,0.003 0.04753,7.2e-4 0.09603,0.002 0.141077,0.003 0.04541,7.2e-4 0.08671,0.002 0.120406,0.004 0.01696,6.2e-4 0.03174,0.002 0.04392,0.002 0.0061,3.1e-4 0.01141,7.2e-4 0.01602,0.002 0.0046,3.1e-4 0.0086,7.2e-4 0.01137,0.002 -0.0036,0.002 -0.0077,0.003 -0.01344,0.004 -0.0057,7.2e-4 -0.01253,0.002 -0.02067,0.003 -0.01635,0.002 -0.03794,0.004 -0.0646,0.006 -0.05373,0.005 -0.128671,0.009 -0.229443,0.0145 -0.204919,0.011 -0.514195,0.0248 -0.957564,0.0422 -0.688971,0.0271 -1.365985,0.0363 -1.984375,0.0448 -0.668376,0.009 -1.27327,0.0177 -1.868103,0.0429 -0.308018,0.0131 -0.603638,0.0306 -0.890385,0.0536 -0.296057,0.0239 -0.58259,0.0537 -0.861447,0.0918 -0.143986,0.0196 -0.286911,0.0418 -0.428397,0.0662 -0.0014,2.5e-4 -0.0028,5.2e-4 -0.0041,7.2e-4 -0.411942,0.0714 -0.813255,0.16386 -1.204061,0.28532 l 0.536401,0.66685 -0.0072,0.13508 c 8.825632,0.0442 22.956757,0.0207 34.568957,0.33046 7.90263,0.2105 16.30565,0.63784 25.50077,0.74568 10.02644,0.1179 18.65463,-0.19629 29.53463,-0.33972 3.44135,-0.0457 6.82144,-0.002 10.45001,0.0218 3.42796,0.0222 6.98661,0.0245 10.4991,-0.11325 1.17903,-0.047 2.35709,-0.068 3.6251,-0.10065 1.2072,-0.0311 2.45283,-0.072 3.64784,-0.15913 1.49291,-0.10844 2.89536,-0.24567 4.31653,-0.38413 1.38666,-0.13508 2.78646,-0.27071 4.25762,-0.37376 0.008,-6.2e-4 0.0219,-0.002 0.0413,-0.003 0.0193,-0.002 0.0434,-0.002 0.0713,-0.005 0.0558,-0.003 0.12643,-0.007 0.21032,-0.0107 0.16737,-0.008 0.38428,-0.018 0.63356,-0.0292 0.69729,-0.0312 1.03334,-0.0454 1.73064,-0.0766 0.60716,-0.0273 1.20651,-0.0556 1.65468,-0.0796 0.11189,-0.006 0.21514,-0.0115 0.30696,-0.0171 0.0915,-0.006 0.17307,-0.0109 0.24184,-0.0159 0.0344,-0.002 0.066,-0.005 0.0951,-0.007 0.0286,-0.002 0.057,-0.005 0.0827,-0.007 0.013,-0.002 0.0269,-0.003 0.0408,-0.005 0.0134,-0.002 0.0302,-0.005 0.0481,-0.007 0.0156,-0.003 0.045,-0.008 0.0739,-0.0181 0.0152,-0.005 0.0354,-0.0123 0.0522,-0.0226 0.0173,-0.0106 0.032,-0.0245 0.032,-0.0415 -5.7e-4,-0.0117 -0.006,-0.0265 -0.0269,-0.0418 -0.0102,-0.007 -0.0235,-0.0156 -0.0413,-0.0229 -0.0178,-0.007 -0.0385,-0.0137 -0.0615,-0.0193 -0.046,-0.011 -0.0941,-0.0162 -0.13384,-0.0189 -0.0389,-0.002 -0.074,-0.003 -0.10077,-0.002 -0.0513,7.2e-4 -0.0983,0.005 -0.13074,0.007 -0.0343,0.003 -0.0694,0.007 -0.0977,0.0101 -0.0313,0.004 -0.0552,0.007 -0.0801,0.009 -0.0186,0.002 -0.0279,0.003 -0.0382,0.004 -0.16824,-0.0464 -0.37376,-0.0892 -0.60514,-0.12693 -0.26329,-0.043 -0.56289,-0.0825 -0.87126,-0.11805 -0.61522,-0.071 -1.28084,-0.12817 -1.79886,-0.1669 -0.77405,-0.0586 -1.55261,-0.1582 -2.36574,-0.25682 -0.80557,-0.0977 -1.63641,-0.19329 -2.48461,-0.23573 -2.26404,-0.11577 -4.71186,-0.19778 -7.1546,-0.19835 z" />
    <path
       id="path731-0"
       style="fill:#d6a468;fill-opacity:1;stroke-width:0.654661"
       d="m 97.824349,145.32904 c 1.960596,-0.003 3.913711,-0.0661 5.708361,-0.22672 2.84756,-0.25526 5.46038,-0.56609 8.12619,-0.76623 0.20239,-0.0156 0.43463,-0.0241 0.68379,-0.0279 0.25018,-0.004 0.51518,-0.003 0.7813,5.2e-4 0.2673,0.003 0.53582,0.008 0.79054,0.0119 0.25666,0.004 0.50075,0.007 0.71815,0.007 1.76993,-0.004 3.57757,0.0182 5.36768,0.0272 1.82807,0.009 3.62172,0.005 5.36085,-0.0489 4.76769,-0.14664 9.30522,-0.3191 14.0142,-0.42476 4.76603,-0.10693 9.43629,-0.1375 14.05729,0.005 1.65743,0.0507 3.367,0.0485 5.06574,0.0335 1.7298,-0.0154 3.46119,-0.0439 5.15721,-0.0466 1.72857,-0.003 3.41045,0.0207 5.03041,0.1075 1.64859,0.0883 3.21723,0.24139 4.68495,0.49444 0.5897,0.10137 1.32148,0.18663 2.11763,0.25626 0.81429,0.0713 1.70034,0.12649 2.5841,0.1664 0.90583,0.0409 1.81224,0.0659 2.65225,0.0757 0.86318,0.0101 1.65691,0.005 2.32213,-0.0163 0.4286,-0.0133 0.73199,-0.0235 0.94322,-0.0315 0.10684,-0.004 0.19033,-0.007 0.25437,-0.0104 0.0322,-0.002 0.0592,-0.003 0.0822,-0.005 0.0231,-7.2e-4 0.0421,-0.002 0.057,-0.003 0.007,-2.2e-4 0.0141,-7.1e-4 0.0198,-0.002 0.006,-2.3e-4 0.0103,-7.1e-4 0.0145,-0.002 0.004,-2.6e-4 0.008,-7.1e-4 0.0112,-0.002 0.002,-2.3e-4 0.003,-5.2e-4 0.005,-7.2e-4 0.002,-2.9e-4 0.003,-7.1e-4 0.004,-0.002 4.4e-4,-3.3e-4 4.1e-4,-7.2e-4 3.9e-4,-0.002 0,-3.2e-4 7e-5,-7.1e-4 -4.4e-4,-0.002 -4.9e-4,-3.3e-4 -8.5e-4,-7.2e-4 -0.002,-7.2e-4 -0.004,-0.002 -0.006,-0.002 -0.007,-0.002 -0.002,-2.2e-4 -0.003,-3.1e-4 -0.005,-5.2e-4 -0.003,-3.3e-4 -0.007,-7.2e-4 -0.0112,-7.2e-4 -0.004,-2.1e-4 -0.008,-3e-4 -0.0132,-7.2e-4 -0.01,-3e-4 -0.0218,-7.2e-4 -0.0351,-0.002 -0.0134,-3.1e-4 -0.0282,-5.3e-4 -0.0442,-7.2e-4 -0.0322,-5.3e-4 -0.0692,-7.2e-4 -0.10664,-0.002 -0.038,-5.3e-4 -0.0769,-7.1e-4 -0.11282,-0.002 -0.0362,-5.2e-4 -0.0694,-7.1e-4 -0.0963,-0.003 -0.0136,-3e-4 -0.0254,-7.2e-4 -0.0351,-0.002 -0.005,-2.2e-4 -0.009,-5.2e-4 -0.0129,-7.2e-4 -0.004,-2.3e-4 -0.007,-5.3e-4 -0.009,-7.1e-4 0.003,-0.002 0.006,-0.002 0.0108,-0.003 0.005,-5.3e-4 0.0102,-7.2e-4 0.0165,-0.002 0.0131,-0.002 0.0303,-0.003 0.0515,-0.005 0.0429,-0.003 0.10278,-0.007 0.18328,-0.0111 0.16373,-0.008 0.41085,-0.0191 0.76513,-0.0326 0.55056,-0.0211 1.09173,-0.0287 1.58603,-0.0357 0.53427,-0.007 1.01779,-0.0146 1.49309,-0.0343 0.24612,-0.0102 0.48229,-0.0235 0.7113,-0.0411 0.23646,-0.0182 0.46523,-0.0409 0.68778,-0.0697 0.11493,-0.0149 0.22895,-0.0316 0.34182,-0.05 9.9e-4,-1.9e-4 0.002,-3e-4 0.003,-5.3e-4 0.32861,-0.0538 0.64852,-0.12359 0.95971,-0.21496 l -0.4357,-0.49857 0.005,-0.10112 c -7.05646,-0.023 -18.35391,0.0107 -27.64092,-0.20788 -6.32024,-0.14854 -13.04275,-0.45883 -20.39527,-0.52905 -8.01725,-0.0768 -14.91217,0.16826 -23.60915,0.28805 -2.75086,0.0381 -5.45367,0.008 -8.3549,-0.005 -2.74085,-0.0127 -5.58598,-0.0104 -8.39276,0.0967 -0.94215,0.0366 -1.88378,0.0537 -2.897205,0.0795 -0.96483,0.0247 -1.960264,0.0567 -2.914776,0.12328 -1.192455,0.0828 -2.312289,0.18721 -3.447083,0.29247 -1.107234,0.10271 -2.224964,0.20584 -3.400083,0.28466 -0.006,2.3e-4 -0.01748,7.1e-4 -0.033,0.002 -0.01538,7.2e-4 -0.0347,0.002 -0.05697,0.003 -0.04459,0.002 -0.101013,0.005 -0.168043,0.008 -0.133716,0.007 -0.307024,0.0139 -0.506211,0.0227 -0.557162,0.0242 -0.825688,0.0352 -1.382847,0.0593 -0.485143,0.0212 -0.964024,0.043 -1.322088,0.0615 -0.08937,0.005 -0.171875,0.009 -0.245234,0.0131 -0.07305,0.005 -0.138244,0.008 -0.193173,0.0121 -0.02746,0.002 -0.05274,0.004 -0.07594,0.006 -0.02287,0.002 -0.04553,0.004 -0.06598,0.006 -0.01038,7.1e-4 -0.02147,0.002 -0.03251,0.004 -0.01068,0.002 -0.02412,0.003 -0.03839,0.006 -0.01248,0.002 -0.03595,0.007 -0.05894,0.0137 -0.01208,0.004 -0.02814,0.009 -0.04141,0.0169 -0.01372,0.008 -0.02532,0.0185 -0.02513,0.0311 6.79e-4,0.008 0.005,0.0199 0.02189,0.0312 0.0081,0.006 0.01896,0.0117 0.03325,0.0171 0.01429,0.006 0.03099,0.0103 0.04939,0.0144 0.0369,0.008 0.07537,0.012 0.107203,0.014 0.03112,0.002 0.05923,0.002 0.08057,0.002 0.04095,-5.3e-4 0.07858,-0.004 0.104439,-0.006 0.02736,-0.002 0.05541,-0.005 0.07804,-0.007 0.02491,-0.003 0.04399,-0.005 0.0639,-0.007 0.01488,-0.002 0.02226,-0.002 0.03045,-0.003 0.134984,0.0345 0.299744,0.0663 0.485116,0.0943 0.210945,0.0319 0.450874,0.0611 0.697782,0.0873 0.492596,0.0524 1.025336,0.0945 1.439874,0.12288 0.619448,0.043 1.242912,0.11665 1.894019,0.18954 0.645052,0.0722 1.310282,0.14282 1.98884,0.17363 1.81127,0.084 3.769121,0.14266 5.72207,0.1403 z" />
    <path
       id="path752"
       style="fill:#d6a468;fill-opacity:1;stroke-width:0.846236"
       d="m 15.774497,119.58319 c -0.581423,0.002 -1.149302,0.007 -1.700672,0.0173 -1.142779,0.0209 -2.193945,0.0612 -3.122806,0.12915 -0.08012,0.006 -0.156954,0.0158 -0.230994,0.0282 -0.07566,0.0126 -0.148889,0.0281 -0.219108,0.0455 -0.144872,0.0359 -0.281197,0.0804 -0.407727,0.12582 -0.1030367,0.037 -0.2042297,0.0771 -0.3012737,0.11435 -0.150059,0.0575 -0.29736,0.11256 -0.441833,0.15469 l 3.2039387,0.46739 -0.02429,0.11843 c 2.629987,0.0464 5.10041,0.009 8.06204,-0.0148 2.512418,-0.0205 5.258284,-0.0291 7.92148,0.0899 0.221094,0.01 0.438652,0.0326 0.715202,0.0647 0.237352,0.0277 0.543869,0.0656 0.859896,0.0862 1.869326,0.12515 4.313483,0.25966 6.837825,0.37525 1.214903,0.0556 2.445889,0.10653 3.620451,0.14913 1.148869,0.0417 2.247644,0.0756 3.217892,0.097 3.89509,0.0859 7.882769,0.0699 11.996167,0.22795 3.12816,0.11994 6.35408,0.26023 9.588045,0.46037 0.561123,0.0341 1.099337,0.0927 1.688269,0.15505 0.562279,0.0595 1.166695,0.12187 1.80144,0.15173 0.3022,0.0137 0.600362,0.008 0.871265,0.003 0.275074,-0.006 0.518907,-0.0129 0.75861,-0.008 1.268222,0.0299 2.465299,0.10482 3.712952,0.17505 1.21854,0.0686 2.470862,0.13166 3.788399,0.13063 1.860282,-9.3e-4 3.68025,-0.0457 5.505607,-0.0981 1.804887,-0.0518 3.618384,-0.11128 5.455481,-0.1421 4.687898,-0.0781 9.367942,-0.0818 14.136607,-0.084 1.42535,-9.4e-4 2.88764,-0.0135 4.33824,-0.0596 1.44741,-0.046 2.88669,-0.12532 4.27364,-0.26126 -10e-4,3e-5 0.004,-5.3e-4 0.0103,-9.3e-4 0.007,-6.2e-4 0.0159,-0.002 0.0269,-0.003 0.0221,-0.002 0.0509,-0.004 0.0858,-0.007 0.0901,-0.007 0.17601,-0.0131 0.26614,-0.02 0.20881,-0.016 0.47163,-0.0366 0.72037,-0.06 0.12442,-0.0117 0.2468,-0.0243 0.35811,-0.0374 0.11046,-0.013 0.21454,-0.027 0.30024,-0.0418 0.043,-0.007 0.084,-0.0154 0.12041,-0.0244 0.0184,-0.005 0.0365,-0.01 0.0532,-0.0152 0.0166,-0.006 0.033,-0.0117 0.047,-0.0188 0.0141,-0.007 0.0266,-0.0155 0.0341,-0.0248 0.008,-0.01 0.01,-0.0196 0.005,-0.0299 -0.005,-0.0104 -0.0168,-0.02 -0.0331,-0.0285 -0.0161,-0.008 -0.0359,-0.0155 -0.0568,-0.0215 -0.42762,-0.12431 -0.93389,-0.22391 -1.4981,-0.30345 -0.56418,-0.0796 -1.18707,-0.13921 -1.85001,-0.18393 -1.32558,-0.0894 -2.82188,-0.11944 -4.34341,-0.12544 -1.52154,-0.006 -3.08681,0.012 -4.53512,0.02 -1.457715,0.008 -2.800855,0.006 -3.905197,-0.0396 -1.418634,-0.0569 -2.916177,-0.15021 -4.266923,-0.22684 -0.682659,-0.0393 -1.408011,-0.0583 -2.15129,-0.0651 -0.746048,-0.007 -1.513756,-0.002 -2.27738,0.009 -1.53837,0.0208 -3.068112,0.0608 -4.411617,0.0618 -4.445643,0.002 -8.904448,-0.0739 -13.35009,-0.0718 -1.591203,9.3e-4 -3.212078,0.0251 -4.815727,0.0374 -1.633267,0.0125 -3.235225,0.0129 -4.787821,-0.0314 -2.712751,-0.0771 -5.403679,-0.16026 -8.012431,-0.22759 -1.392375,-0.036 -2.953778,-0.0104 -4.436938,0.002 -0.765674,0.007 -1.51824,0.009 -2.249476,0 -0.740751,-0.009 -1.451851,-0.0312 -2.120284,-0.074 -1.092401,-0.0699 -2.169715,-0.18174 -3.209623,-0.2942 -1.09597,-0.11853 -2.131325,-0.23555 -3.200321,-0.32381 -4.667253,-0.38717 -9.52056,-0.46451 -13.892692,-0.46332 -1.001227,3.2e-4 -2.109202,-0.0118 -3.229261,-0.0256 -1.173482,-0.0143 -2.339246,-0.0299 -3.517614,-0.037 -0.604528,-0.004 -1.199348,-0.005 -1.78077,-0.003 z" />
    <path
       id="path807"
       style="fill:#d6a468;fill-opacity:1;stroke-width:0.846236"
       d="m 107.86552,126.07334 c -2.39819,0.005 -4.81241,0.023 -6.80992,0.0389 -4.606142,0.0368 -9.220747,0.12853 -13.277746,0.20796 -3.642261,0.0713 -6.875286,0.13308 -10.10326,0.17357 -0.04008,-0.002 -0.08253,-0.004 -0.133325,-0.005 -0.05863,-0.002 -0.125393,-0.003 -0.202571,-0.004 -0.250526,-0.004 -0.498067,-0.004 -0.735873,-0.002 -0.249229,0.002 -0.493766,0.006 -0.723987,0.0104 -0.506769,0.0105 -0.963733,0.0244 -1.358056,0.0333 l 0.04134,0.0222 c 1.029534,-0.008 2.046077,-0.0188 3.062862,-0.0314 0.01238,6.9e-4 0.0257,9.3e-4 0.03772,0.002 0.02777,0.002 0.0513,0.004 0.08372,0.006 0.03018,0.002 0.06457,0.005 0.10542,0.007 0.04045,0.002 0.08692,0.004 0.142627,0.007 0.108535,0.004 0.250824,0.008 0.455786,0.0111 0.476702,0.007 1.041247,0.0105 1.646928,0.0148 0.585694,0.004 1.211115,0.008 1.795756,0.0185 0.288033,0.005 0.567233,0.0107 0.82889,0.0185 0.258793,0.007 0.49964,0.0173 0.714685,0.0288 0.212589,0.0114 0.399805,0.0249 0.553971,0.0411 0.152366,0.0161 0.274341,0.0349 0.356567,0.057 0.180531,0.0486 0.361502,0.10664 0.584461,0.17244 0.214924,0.0634 0.463578,0.13248 0.765328,0.19836 0.296807,0.0648 0.650159,0.12768 1.083138,0.18023 0.214291,0.026 0.449335,0.0494 0.708484,0.0696 0.257282,0.02 0.538533,0.0366 0.847493,0.0485 0.813176,0.0312 1.783571,0.0563 2.843238,0.077 1.045897,0.0203 2.175578,0.0363 3.323311,0.0496 1.134533,0.0131 2.275636,0.0233 3.363102,0.0329 1.068676,0.009 2.086496,0.018 2.955901,0.0273 5.32753,0.0574 10.78589,0.15514 16.37729,0.18652 6.06893,0.034 11.97835,0 18.22266,0 2.268,0 4.41962,-0.0287 6.69468,-0.0414 2.24508,-0.0126 4.4319,-0.0238 6.57686,-0.0521 2.13589,-0.0283 4.24748,-0.0739 6.37636,-0.1558 1.22998,-0.0473 2.5096,-0.085 3.80028,-0.12323 1.28269,-0.0381 2.57367,-0.0765 3.80959,-0.12508 2.12638,-0.0835 4.097,-0.1945 6.09937,-0.29605 1.00248,-0.0508 2.01371,-0.0993 3.06028,-0.14099 1.04678,-0.0417 2.12761,-0.0767 3.26853,-0.10029 1.07521,-0.0223 2.41294,-0.0297 3.87522,-0.0311 1.46203,-0.002 3.04321,0.003 4.5992,0.004 1.55787,6.4e-4 3.09214,-0.003 4.45916,-0.0189 0.68466,-0.008 1.32913,-0.02 1.91409,-0.0363 0.58556,-0.0162 1.11355,-0.037 1.56425,-0.064 0.0108,-6.6e-4 0.0199,-0.002 0.0274,-0.002 0.007,-8.2e-4 0.0131,-0.002 0.017,-0.003 0.008,-0.002 0.0104,-0.003 0.0114,-0.004 0.002,-0.002 -9.4e-4,-0.003 -0.002,-0.004 -0.001,-6.6e-4 -0.003,-9.3e-4 -0.004,-0.002 -0.001,-3.7e-4 -0.003,-8.3e-4 -0.004,-9.3e-4 -0.002,-5.3e-4 -0.005,-9.3e-4 -0.007,-0.002 -0.002,-4.8e-4 -0.005,-9.4e-4 -0.008,-0.002 -0.006,-9.3e-4 -0.0123,-0.002 -0.0202,-0.004 -0.008,-9.3e-4 -0.0168,-0.003 -0.0269,-0.004 -0.0402,-0.007 -0.0991,-0.0152 -0.17002,-0.0256 -0.14228,-0.0208 -0.33541,-0.0485 -0.53227,-0.0762 -0.19759,-0.0278 -0.39919,-0.0557 -0.5581,-0.0773 -0.0796,-0.0108 -0.14874,-0.0202 -0.20154,-0.0271 -0.0264,-0.004 -0.0491,-0.007 -0.0672,-0.008 -0.009,-9.3e-4 -0.0175,-0.002 -0.0248,-0.003 -0.004,-4.2e-4 -0.007,-9.4e-4 -0.0109,-0.002 -0.003,-3.6e-4 -0.008,-6.6e-4 -0.0129,-9.3e-4 -0.0163,-0.002 -0.0305,-0.004 -0.0445,-0.007 -0.0144,-0.003 -0.0263,-0.007 -0.0403,-0.01 -0.0133,-0.004 -0.0289,-0.008 -0.0501,-0.0122 -0.0218,-0.005 -0.0512,-0.009 -0.0956,-0.013 -0.008,-7e-4 -0.0152,-9.4e-4 -0.0196,-0.002 -0.005,-2.9e-4 -0.009,-6.1e-4 -0.0119,-7.5e-4 -0.006,-2.7e-4 -0.0105,-2.7e-4 -0.0134,-3.6e-4 -0.006,-2.1e-4 -0.0115,-2.8e-4 -0.015,-3.7e-4 -0.007,-2e-4 -0.0155,-5.8e-4 -0.0232,-7.4e-4 -0.0161,-3.4e-4 -0.0378,-6.4e-4 -0.0641,-9.3e-4 -0.0531,-9.3e-4 -0.12896,-0.002 -0.22428,-0.004 -0.19131,-0.003 -0.46324,-0.007 -0.79013,-0.0122 -0.65774,-0.01 -1.53778,-0.0229 -2.44688,-0.0356 -0.91603,-0.0128 -1.85868,-0.0254 -2.6386,-0.0348 -0.39201,-0.005 -0.74343,-0.008 -1.02991,-0.0115 -0.14365,-9.3e-4 -0.27142,-0.002 -0.38034,-0.003 -0.10869,-7.3e-4 -0.20028,-0.002 -0.27078,-0.002 -7.85599,0 -15.3881,0.0747 -22.63169,0.26977 -0.97582,0.0263 -1.9484,0.0462 -2.88406,0.067 -0.97332,0.0217 -1.92236,0.0447 -2.88923,0.0781 -2.077,0.0717 -4.40703,0.11266 -6.84093,0.13027 -2.47296,0.0179 -5.05897,0.0118 -7.61091,-0.0107 -2.59649,-0.0229 -5.16614,-0.0625 -7.56801,-0.11177 -2.44782,-0.0502 -4.72955,-0.11067 -6.71432,-0.17355 -1.64444,-0.0521 -3.3179,-0.12327 -4.8767,-0.18318 -1.6848,-0.0647 -3.32214,-0.12008 -5.05706,-0.1484 -2.18614,-0.0357 -4.57013,-0.0431 -6.82749,-0.0389 z" />
    <path
       id="path807-8"
       style="fill:#d6a468;fill-opacity:1;stroke-width:0.846236"
       d="m 94.458536,151.2686 c 2.396045,-0.0728 4.807309,-0.16025 6.802354,-0.23322 4.60043,-0.16818 9.20625,-0.39162 13.25561,-0.58679 3.6354,-0.17522 6.86242,-0.3292 10.08557,-0.46178 0.0401,2.9e-4 0.0826,0.002 0.1335,0.002 0.0586,-2.4e-4 0.12545,-7.1e-4 0.20265,-0.002 0.25052,-0.004 0.49791,-0.01 0.73541,-0.0188 0.24891,-0.009 0.49306,-0.0199 0.72283,-0.031 0.50579,-0.025 0.96161,-0.0519 1.35512,-0.072 l -0.0425,-0.021 c -1.02827,0.0373 -2.0434,0.0772 -3.05868,0.11883 -0.0124,-3.2e-4 -0.0258,-6.9e-4 -0.0378,-7.1e-4 -0.0279,-6.4e-4 -0.0515,-0.002 -0.084,-0.004 -0.0303,-0.002 -0.0648,-0.002 -0.10569,-0.004 -0.0406,-7.2e-4 -0.0871,-0.002 -0.14288,-0.002 -0.10868,-0.002 -0.25107,-7.1e-4 -0.45604,0.002 -0.47671,0.007 -1.04101,0.0191 -1.64644,0.0322 -0.58547,0.0125 -1.21064,0.0258 -1.79536,0.0328 -0.28808,0.003 -0.56738,0.006 -0.82926,0.005 -0.25901,-2.8e-4 -0.50021,-0.003 -0.71572,-0.008 -0.21306,-0.006 -0.40088,-0.0134 -0.55582,-0.0253 -0.15314,-0.0117 -0.27606,-0.027 -0.35946,-0.0467 -0.18309,-0.0435 -0.36715,-0.0962 -0.59359,-0.15563 -0.21828,-0.0573 -0.47059,-0.11913 -0.77576,-0.17635 -0.30017,-0.0563 -0.65675,-0.10901 -1.09231,-0.14916 -0.21557,-0.0199 -0.45173,-0.0366 -0.71179,-0.0494 -0.25819,-0.0126 -0.54014,-0.0212 -0.84952,-0.0243 -0.81427,-0.008 -1.78529,-0.006 -2.84526,0.005 -1.0462,0.01 -2.17588,0.0258 -3.32343,0.0453 -1.13436,0.0192 -2.27513,0.0416 -3.36226,0.0631 -1.06836,0.0211 -2.08585,0.0415 -2.95508,0.0571 -5.32649,0.0948 -10.785955,0.15284 -16.374658,0.28107 -6.066001,0.13924 -11.968832,0.3419 -18.208184,0.52012 -2.266197,0.0647 -4.414509,0.15485 -6.687052,0.23251 -2.242595,0.0767 -4.427055,0.15025 -6.568729,0.23988 -2.132618,0.0893 -4.239992,0.19507 -6.362622,0.33767 -1.226368,0.0824 -2.502877,0.15652 -3.790401,0.23161 -1.279555,0.0746 -2.567365,0.14994 -3.799604,0.23371 -2.120043,0.14414 -4.082919,0.31129 -6.078046,0.4699 -0.998854,0.0794 -2.006584,0.15669 -3.050001,0.22824 -1.043625,0.0717 -2.121653,0.13731 -3.260352,0.19349 -1.073116,0.0529 -2.409372,0.0985 -3.87041,0.14167 -1.460789,0.0432 -3.040952,0.084 -4.595745,0.12768 -1.556668,0.0439 -3.089564,0.0904 -4.454565,0.14618 -0.683657,0.0278 -1.326962,0.0578 -1.910552,0.0909 -0.58419,0.0329 -1.110605,0.0687 -1.559444,0.10862 -0.01076,7.1e-4 -0.0198,0.002 -0.02726,0.003 -0.007,7.1e-4 -0.01297,0.003 -0.01683,0.004 -0.0079,0.002 -0.01027,0.002 -0.01119,0.004 -0.0019,0.002 0.0011,0.003 0.0022,0.004 10e-4,6.3e-4 0.0031,0.002 0.0041,0.002 10e-4,3.4e-4 0.003,6.3e-4 0.0041,0.002 0.002,4.8e-4 0.005,5.7e-4 0.0071,0.002 0.002,4.1e-4 0.005,5.6e-4 0.0081,0.002 0.006,5.4e-4 0.01241,0.002 0.02038,0.003 0.0081,0.002 0.01695,0.002 0.02712,0.004 0.04053,0.005 0.09987,0.0123 0.171308,0.0207 0.143323,0.0167 0.337842,0.0389 0.53609,0.061 0.198984,0.0222 0.40197,0.0442 0.561961,0.0614 0.08014,0.008 0.149742,0.0159 0.202883,0.0212 0.02658,0.003 0.04942,0.005 0.06762,0.007 0.0091,0.002 0.0176,0.002 0.02494,0.002 0.004,3e-4 0.0071,0.002 0.01097,0.002 0.003,2.8e-4 0.008,4.3e-4 0.01297,7.2e-4 0.01637,7.2e-4 0.03067,0.003 0.04482,0.005 0.01455,0.002 0.0266,0.005 0.04083,0.009 0.01349,0.003 0.02932,0.007 0.05074,0.0107 0.02202,0.004 0.05166,0.007 0.09624,0.0103 0.008,4.7e-4 0.01527,7.2e-4 0.01966,7.2e-4 0.005,1.5e-4 0.009,3.6e-4 0.01193,3.8e-4 0.006,1.1e-4 0.01051,-3e-5 0.01341,-1e-5 0.006,4e-5 0.01151,-5e-5 0.01501,-6e-5 0.007,-1e-5 0.01552,1.4e-4 0.02322,6e-5 0.01611,-1.3e-4 0.03781,-4.4e-4 0.06413,-4e-4 0.0531,-7.2e-4 0.128977,-0.002 0.224301,-0.003 0.191317,-0.003 0.463278,-0.006 0.790183,-0.0104 0.657772,-0.008 1.53783,-0.0211 2.446913,-0.0343 0.916012,-0.0134 1.858614,-0.0277 2.63844,-0.0405 0.391978,-0.007 0.743326,-0.0125 1.02973,-0.018 0.143615,-0.003 0.271324,-0.006 0.380197,-0.008 0.108643,-0.002 0.2002,-0.005 0.270644,-0.007 7.849748,-0.22422 15.371716,-0.51385 22.598695,-0.91551 0.973582,-0.0541 1.944285,-0.10169 2.878042,-0.14922 0.971339,-0.0495 1.918345,-0.0995 2.882588,-0.1605 2.071358,-0.13093 4.397258,-0.23835 6.828244,-0.3254 2.469999,-0.0884 5.054297,-0.15614 7.60546,-0.20651 2.595699,-0.0513 5.165511,-0.0851 7.568217,-0.10433 2.448672,-0.0197 4.731955,-0.0244 6.718648,-0.0182 1.646031,0.005 3.322124,0.0284 4.88302,0.0438 1.687065,0.0166 3.326184,0.0251 5.061301,0.005 2.186388,-0.0268 4.568898,-0.0873 6.824229,-0.15603 z"
       inkscape:label="path807-8" />
    <path
       id="path947"
       style="fill:#d6a468;fill-opacity:1;stroke-width:0.846236"
       d="m 22.503285,132.87177 c -2.334773,0.004 -4.511249,0.0314 -6.351033,0.11991 -0.05016,0.003 -0.1007,0.006 -0.149345,0.01 -0.04966,0.004 -0.100772,0.008 -0.152446,0.0137 -0.104793,0.0105 -0.218068,0.0235 -0.332796,0.0378 -0.237498,0.0294 -0.498365,0.0659 -0.734839,0.1003 -0.250418,0.0365 -0.488367,0.073 -0.667143,0.10065 -0.0943,0.0146 -0.177836,0.0275 -0.240812,0.0374 -0.03304,0.006 -0.06091,0.009 -0.08423,0.013 -0.02398,0.004 -0.04144,0.007 -0.05323,0.008 l 0.174149,0.0592 -2.536279,0.10362 c 0,0.0383 0.0091,0.072 0.02791,0.10102 0.01861,0.0285 0.04664,0.0519 0.08423,0.0715 0.0062,0.003 0.014,0.006 0.02067,0.009 0.0333,0.0149 0.07164,0.0282 0.119372,0.0384 0.05577,0.012 0.121683,0.0208 0.198954,0.0273 1.91e-4,2e-5 3.27e-4,-1e-5 5.17e-4,0 0.07506,0.007 0.160253,0.0104 0.257349,0.013 0.09489,0.003 0.200203,0.004 0.31781,0.004 0.28243,4e-5 0.535609,-0.003 0.818038,-0.003 6.392104,5.8e-4 12.745229,-0.0502 19.137333,-0.0496 7.892787,8.1e-4 16.709814,0.01 25.359692,0.21057 4.200235,0.098 8.686525,0.23173 13.1377,0.41854 1.898758,0.0803 3.949634,0.18122 5.9986,0.2113 1.535738,0.0222 3.056583,0.0186 4.619356,0.0181 1.518163,-4.2e-4 3.062353,0.002 4.599719,0.0374 3.431271,0.0786 6.817323,0.10669 10.382829,0.10806 0.222034,3.3e-4 0.465578,0.004 0.722437,0.007 0.253303,0.004 0.522677,0.008 0.788065,0.0122 0.265153,0.004 0.532313,0.006 0.788063,0.004 0.25442,-0.002 0.50054,-0.007 0.72554,-0.02 0.0828,-0.005 0.18781,-0.0101 0.30696,-0.0166 0.11915,-0.007 0.253695,-0.0142 0.397395,-0.0226 0.28638,-0.0168 0.61109,-0.0371 0.92656,-0.06 0.31383,-0.0227 0.6221,-0.0481 0.8754,-0.0755 0.12642,-0.0136 0.24167,-0.0279 0.33796,-0.0429 0.0482,-0.007 0.0926,-0.0155 0.13178,-0.0237 0.039,-0.008 0.074,-0.0169 0.10232,-0.0263 0.0672,-0.022 0.14805,-0.0457 0.23616,-0.0707 0.0868,-0.0246 0.18146,-0.0508 0.27181,-0.0773 0.0907,-0.0266 0.17959,-0.0545 0.25684,-0.0826 0.077,-0.028 0.14459,-0.0569 0.19017,-0.0866 0.0137,-0.009 0.0244,-0.0197 0.0336,-0.0311 0.009,-0.0115 0.0172,-0.0246 0.0238,-0.0389 0.0131,-0.0285 0.0214,-0.0626 0.0238,-0.0999 0.005,-0.0746 -0.0128,-0.16358 -0.0605,-0.24943 -0.0238,-0.0429 -0.0553,-0.0855 -0.0956,-0.12508 -0.0402,-0.0395 -0.0899,-0.0768 -0.15089,-0.10916 -0.0306,-0.0162 -0.0645,-0.0316 -0.10232,-0.0455 -0.0378,-0.0139 -0.0808,-0.0267 -0.12919,-0.0378 -0.0485,-0.0111 -0.10413,-0.0206 -0.16743,-0.0274 -0.0639,-0.007 -0.13335,-0.0106 -0.20722,-0.0107 -0.0504,-8e-5 -0.0969,0.003 -0.13798,0.007 -0.0409,0.004 -0.0793,0.009 -0.11421,0.0148 -0.0691,0.0114 -0.1358,0.0267 -0.19843,0.0433 -0.0634,0.0169 -0.12629,0.0362 -0.18759,0.0566 -0.0615,0.0204 -0.12227,0.0425 -0.18035,0.0644 -0.11607,0.0438 -0.22448,0.0885 -0.31057,0.12396 -0.0434,0.0179 -0.0805,0.0332 -0.11111,0.0452 -0.0153,0.006 -0.0282,0.0107 -0.0388,0.0145 -0.005,0.002 -0.01,0.004 -0.0134,0.005 -0.003,9.3e-4 -0.006,0.002 -0.005,0.002 -0.25761,0.0714 -0.5824,0.13234 -0.93018,0.1817 -0.35002,0.0496 -0.720255,0.0874 -1.064535,0.1125 -0.37865,0.0277 -0.77836,0.0343 -1.19734,0.0363 -0.416769,0.002 -0.863914,-9.3e-4 -1.299149,0.009 -2.006568,0.0495 -3.617986,0.0447 -5.197615,0.005 -1.600723,-0.0408 -3.188868,-0.11866 -5.101498,-0.21501 -2.895365,-0.14554 -5.482397,-0.27412 -8.109066,-0.3745 -2.671387,-0.1021 -5.339952,-0.17328 -8.302852,-0.20169 -4.877233,-0.047 -9.635598,-0.16946 -14.295251,-0.21094 -0.846253,-0.007 -1.296439,-0.0124 -1.821595,-0.0177 -4.8e-4,-3.4e-4 -5.29e-4,-7.6e-4 -10e-4,-9.3e-4 -0.01148,-0.007 -0.02751,-0.0139 -0.04289,-0.0185 -0.01509,-0.005 -0.03055,-0.008 -0.04289,-0.0104 -0.02372,-0.005 -0.04583,-0.007 -0.05839,-0.008 -0.01375,-0.002 -0.02572,-0.003 -0.03411,-0.004 -0.01645,-9.4e-4 -0.03114,-0.002 -0.04031,-0.003 -0.01887,-9.4e-4 -0.03779,-0.002 -0.05374,-0.002 -0.01709,-5.6e-4 -0.0361,-9.3e-4 -0.05684,-0.002 -0.04156,-9.4e-4 -0.09465,-0.002 -0.15968,-0.003 -0.06546,-9.4e-4 -0.144442,-0.003 -0.238229,-0.004 -0.188227,-0.003 -0.437518,-0.006 -0.759126,-0.008 -0.648105,-0.007 -1.590856,-0.0151 -2.916618,-0.0259 -7.055049,-0.0577 -14.360075,-0.054 -20.761524,-0.0548 -1.983611,-4.5e-4 -4.235081,-0.0197 -6.395475,-0.0166 z M 11.403187,133.576 c 0.0091,0.014 0.02073,0.027 0.03462,0.0389 -0.01397,-0.0119 -0.02548,-0.0249 -0.03462,-0.0389 z" />
    <path
       id="path3278"
       style="fill:#d6a468;stroke-width:0.846236"
       d="m 57.375575,139.60173 c -6.55323,-0.003 -13.061077,0.0636 -19.614307,0.0611 -2.001162,-9.3e-4 -4.070573,-0.0341 -6.096268,-0.0506 -2.14107,-0.0175 -4.18825,-0.0169 -6.137093,0.0448 -1.561602,0.0492 -2.887438,0.1637 -4.048849,0.26792 -1.312898,0.11782 -2.397207,0.21989 -3.654557,0.27311 -0.740996,0.0314 -1.493896,0.0383 -2.231388,0.034 -0.77582,-0.005 -1.575055,-0.0217 -2.321306,-0.0374 -0.829486,-0.0174 -1.59244,-0.0329 -2.364197,-0.037 -0.83722,-0.005 -1.6155427,0.006 -2.3626457,0.0378 l 0.05994,0.0914 0.05943,0.091 c 0.03139,-9.3e-4 0.06405,-0.002 0.0956,-0.004 l 1.169954,0.66278 c 0.7052397,0 1.4480107,-0.004 2.2039997,-0.008 0.05421,-2.7e-4 0.115315,-1e-4 0.170016,-3.6e-4 0.620328,-0.003 1.255762,-0.007 1.928047,-0.006 1.350335,9.3e-4 2.851623,0.0157 4.17804,0.0847 0.612914,0.0323 1.163716,0.0705 1.827795,0.11286 0.583078,0.0371 1.217307,0.0749 1.881022,0.0973 1.173492,0.0388 2.407364,0.041 3.707784,0.0322 1.229177,-0.008 2.490052,-0.0268 3.717603,-0.0256 7.770495,0.002 15.939206,-0.0614 24.131344,-0.3338 2.009787,-0.0662 4.196375,-0.12974 6.321578,-0.2287 2.098492,-0.0977 4.204819,-0.2327 6.170682,-0.44815 0.72304,-0.0769 1.454012,-0.1635 2.150773,-0.26792 0.05907,-0.008 0.119677,-0.0207 0.178801,-0.0337 0.05961,-0.0131 0.120979,-0.0282 0.181901,-0.0437 0.06869,-0.0175 0.132467,-0.0344 0.198954,-0.0521 0.01557,3.6e-4 0.03227,9.3e-4 0.04754,0.002 0.08148,9.4e-4 0.166429,6e-4 0.245464,-0.005 0.04022,-0.003 0.08097,-0.007 0.119889,-0.0122 0.03934,-0.006 0.07635,-0.0135 0.10697,-0.0233 0.03069,-0.01 0.0523,-0.021 0.06615,-0.0329 0.01369,-0.0119 0.01927,-0.0239 0.0186,-0.0363 -6.39e-4,-0.01 -0.005,-0.0202 -0.01757,-0.0303 -0.0065,-0.006 -0.0159,-0.0111 -0.02997,-0.0167 -0.0143,-0.006 -0.03339,-0.0113 -0.05839,-0.016 -0.02527,-0.005 -0.05316,-0.007 -0.08165,-0.009 -0.02793,-0.002 -0.05398,-0.002 -0.07648,-7.4e-4 -0.02234,7.1e-4 -0.04228,0.002 -0.05943,0.004 -0.01724,0.002 -0.03317,0.004 -0.04754,0.006 -0.02834,0.004 -0.05532,0.009 -0.0801,0.0141 -0.02515,0.005 -0.05073,0.0106 -0.07596,0.0167 -0.04569,0.0109 -0.09484,0.0242 -0.144177,0.0378 -0.02329,-9.3e-4 -0.04157,-0.002 -0.06666,-0.003 -0.155455,-0.008 -0.335494,-0.0221 -0.513147,-0.0337 -0.08849,-0.006 -0.17804,-0.0115 -0.264067,-0.0156 -0.08556,-0.004 -0.172819,-0.007 -0.255281,-0.007 -0.981435,-0.003 -1.955679,-0.006 -2.915584,-0.007 -1.222468,-9.4e-4 -2.445885,-0.0371 -3.664376,-0.0722 -1.250681,-0.0359 -2.489955,-0.0713 -3.756877,-0.0726 z" />
    <path
       id="path3278-0"
       style="fill:#d6a468;stroke-width:0.846236"
       d="m 179.37459,148.29453 c -6.55323,-0.003 -13.06108,0.0636 -19.61431,0.0611 -2.00116,-0.002 -4.07057,-0.0341 -6.09626,-0.0506 -2.14107,-0.0174 -4.18825,-0.0169 -6.1371,0.0448 -1.5616,0.0492 -2.88743,0.1637 -4.04885,0.26792 -1.31289,0.11782 -2.3972,0.21989 -3.65455,0.27311 -0.741,0.0314 -1.4939,0.0382 -2.23139,0.034 -0.77582,-0.005 -1.57506,-0.0217 -2.32131,-0.0374 -0.82948,-0.0174 -1.59244,-0.0329 -2.36419,-0.037 -0.83722,-0.005 -1.61555,0.006 -2.36265,0.0378 l 0.0599,0.0914 0.0594,0.091 c 0.0314,-0.002 0.0641,-0.002 0.0956,-0.004 l 1.16995,0.66277 c 0.70524,0 1.44802,-0.005 2.204,-0.008 0.0542,-2.7e-4 0.11532,-1e-4 0.17002,-3.7e-4 0.62033,-0.003 1.25576,-0.007 1.92805,-0.006 1.35033,0.002 2.85162,0.0157 4.17804,0.0847 0.61291,0.0323 1.16371,0.0705 1.82779,0.11288 0.58308,0.0371 1.21731,0.0749 1.88102,0.0973 1.1735,0.0387 2.40737,0.041 3.70779,0.0322 1.22918,-0.008 2.49005,-0.0267 3.7176,-0.0256 7.7705,0.002 15.93921,-0.0613 24.13135,-0.33379 2.00978,-0.0662 4.19637,-0.12976 6.32157,-0.22871 2.0985,-0.0977 4.20482,-0.2327 6.17069,-0.44815 0.72304,-0.0769 1.45401,-0.1635 2.15077,-0.26792 0.0591,-0.008 0.11968,-0.0207 0.1788,-0.0337 0.0596,-0.0131 0.12098,-0.0282 0.1819,-0.0437 0.0687,-0.0175 0.13247,-0.0344 0.19895,-0.0522 0.0156,3.6e-4 0.0323,0.002 0.0475,0.002 0.0815,0.002 0.16643,6e-4 0.24547,-0.005 0.0402,-0.003 0.081,-0.007 0.11989,-0.0122 0.0393,-0.006 0.0764,-0.0135 0.10697,-0.0232 0.0307,-0.01 0.0523,-0.021 0.0661,-0.0329 0.0137,-0.0118 0.0193,-0.0239 0.0186,-0.0362 -6.4e-4,-0.01 -0.005,-0.0202 -0.0176,-0.0303 -0.006,-0.005 -0.0159,-0.011 -0.03,-0.0167 -0.0143,-0.006 -0.0334,-0.0113 -0.0584,-0.0159 -0.0253,-0.005 -0.0532,-0.007 -0.0816,-0.009 -0.0279,-0.002 -0.054,-0.002 -0.0765,-7.1e-4 -0.0223,7e-4 -0.0423,0.002 -0.0594,0.004 -0.0172,0.002 -0.0332,0.004 -0.0475,0.006 -0.0283,0.005 -0.0553,0.009 -0.0801,0.0141 -0.0251,0.005 -0.0507,0.0106 -0.076,0.0167 -0.0457,0.0109 -0.0948,0.0242 -0.14418,0.0378 -0.0233,-0.002 -0.0416,-0.002 -0.0667,-0.003 -0.15545,-0.008 -0.33549,-0.0221 -0.51315,-0.0337 -0.0885,-0.006 -0.17804,-0.0115 -0.26406,-0.0156 -0.0856,-0.005 -0.17282,-0.007 -0.25528,-0.007 -0.98144,-0.003 -1.95568,-0.005 -2.91559,-0.007 -1.22247,-0.002 -2.44588,-0.0371 -3.66437,-0.0722 -1.25069,-0.0359 -2.48996,-0.0713 -3.75688,-0.0726 z" />
    <path
       id="path3278-3"
       style="fill:#d6a468;stroke-width:0.846236"
       d="m 180.96494,132.16053 c -6.55323,-0.003 -13.06108,0.0636 -19.61431,0.0611 -2.00116,-0.002 -4.07057,-0.0341 -6.09626,-0.0507 -2.14108,-0.0174 -4.18826,-0.0169 -6.1371,0.0448 -1.5616,0.0492 -2.88744,0.1637 -4.04885,0.26794 -1.31289,0.11781 -2.3972,0.21988 -3.65455,0.2731 -0.741,0.0314 -1.4939,0.0383 -2.23139,0.0341 -0.77582,-0.005 -1.57506,-0.0217 -2.32131,-0.0374 -0.82948,-0.0175 -1.59244,-0.0329 -2.3642,-0.037 -0.83721,-0.005 -1.61554,0.006 -2.36264,0.0377 l 0.0599,0.0914 0.0594,0.091 c 0.0314,-0.002 0.064,-0.002 0.0956,-0.004 l 1.16995,0.66279 c 0.70524,0 1.44801,-0.005 2.204,-0.008 0.0542,-2.7e-4 0.11532,-1e-4 0.17002,-3.6e-4 0.62033,-0.003 1.25576,-0.007 1.92805,-0.006 1.35033,0.002 2.85162,0.0157 4.17804,0.0847 0.61291,0.0323 1.16371,0.0705 1.82779,0.11288 0.58308,0.0371 1.21731,0.0749 1.88102,0.0973 1.17349,0.0387 2.40737,0.041 3.70779,0.0322 1.22917,-0.008 2.49005,-0.0267 3.7176,-0.0256 7.77049,0.002 15.93921,-0.0613 24.13134,-0.3338 2.00979,-0.0662 4.19638,-0.12974 6.32158,-0.2287 2.09849,-0.0977 4.20482,-0.2327 6.17068,-0.44815 0.72304,-0.0769 1.45402,-0.16351 2.15078,-0.26793 0.0591,-0.008 0.11967,-0.0207 0.1788,-0.0337 0.0596,-0.0131 0.12098,-0.0282 0.1819,-0.0437 0.0687,-0.0175 0.13247,-0.0344 0.19895,-0.0522 0.0156,3.5e-4 0.0323,0.002 0.0475,0.002 0.0815,0.002 0.16643,6e-4 0.24547,-0.005 0.0402,-0.003 0.081,-0.007 0.11989,-0.0122 0.0393,-0.006 0.0764,-0.0135 0.10697,-0.0233 0.0307,-0.01 0.0523,-0.021 0.0661,-0.0329 0.0137,-0.0118 0.0193,-0.0239 0.0186,-0.0362 -6.4e-4,-0.01 -0.005,-0.0202 -0.0176,-0.0303 -0.007,-0.005 -0.0159,-0.011 -0.03,-0.0167 -0.0143,-0.006 -0.0334,-0.0113 -0.0584,-0.0159 -0.0253,-0.005 -0.0532,-0.007 -0.0816,-0.009 -0.0279,-0.002 -0.054,-0.002 -0.0765,-7.2e-4 -0.0223,7.1e-4 -0.0423,0.002 -0.0594,0.004 -0.0172,0.002 -0.0332,0.004 -0.0475,0.006 -0.0283,0.005 -0.0553,0.009 -0.0801,0.0141 -0.0252,0.005 -0.0507,0.0106 -0.076,0.0167 -0.0457,0.0109 -0.0948,0.0242 -0.14418,0.0378 -0.0233,-0.002 -0.0416,-0.002 -0.0667,-0.003 -0.15546,-0.008 -0.3355,-0.022 -0.51315,-0.0337 -0.0885,-0.006 -0.17804,-0.0115 -0.26407,-0.0156 -0.0856,-0.005 -0.17281,-0.007 -0.25528,-0.007 -0.98143,-0.003 -1.95568,-0.005 -2.91558,-0.007 -1.22247,-0.002 -2.44589,-0.0371 -3.66438,-0.0722 -1.25068,-0.0359 -2.48995,-0.0713 -3.75687,-0.0726 z" />
  </g>
  <g
     inkscape:groupmode="layer"
     id="layer2"
     inkscape:label="Layer 2"
     transform="translate(-6.7725064,-107.97913)">
    <text
       xml:space="preserve"
       style="font-size:25.8081px;opacity:1;fill:#000000;stroke-width:2.07279"
       x="19.422174"
       y="134.75868"
       id="text1939"
       transform="scale(0.97345722,1.0272665)"
       inkscape:label="text1939"><tspan
         sodipodi:role="line"
         id="tspan1937"
         style="font-style:normal;font-variant:normal;font-weight:normal;font-stretch:normal;font-family:Chalkboard;-inkscape-font-specification:Chalkboard;stroke-width:2.07279"
         x="19.422174"
         y="134.75868">Building Blocks</tspan></text>
  </g>
</svg>
